<svg width="23" height="34" viewBox="0 0 23 34" fill="none" xmlns="http://www.w3.org/2000/svg">
<path d="M2.29367 1.12403C2.36217 0.576015 1.97345 0.0762246 1.42543 0.00772214C0.877409 -0.0607804 0.377618 0.327945 0.309116 0.875965L2.29367 1.12403ZM8.80139 15L9.54881 15.6644L8.80139 15ZM14.5943 33.2071C14.9848 33.5976 15.618 33.5976 16.0085 33.2071L22.3725 26.8431C22.763 26.4526 22.763 25.8194 22.3725 25.4289C21.9819 25.0384 21.3488 25.0384 20.9582 25.4289L15.3014 31.0858L9.64453 25.4289C9.254 25.0384 8.62084 25.0384 8.23032 25.4289C7.83979 25.8195 7.83979 26.4526 8.23032 26.8432L14.5943 33.2071ZM0.309116 0.875965C-0.368256 6.29494 0.0812539 11.5918 1.52614 14.7899C2.23771 16.365 3.32245 17.7067 4.89648 17.9739C6.48853 18.2441 8.06664 17.3318 9.54881 15.6644L8.05398 14.3356C6.71755 15.8391 5.7822 16.0956 5.23118 16.0021C4.66214 15.9055 3.9742 15.3509 3.34876 13.9665C2.1196 11.2459 1.63771 6.37172 2.29367 1.12403L0.309116 0.875965ZM9.54881 15.6644C10.526 14.565 11.3208 13.8222 11.9588 13.3665C12.6181 12.8955 12.9876 12.8195 13.1444 12.827C13.2123 12.8302 13.3346 12.8429 13.5191 13.1464C13.7246 13.4844 13.9171 14.0568 14.0659 14.9199C14.3613 16.6334 14.4264 19.1117 14.4108 22.1667C14.3954 25.1612 14.3014 28.7702 14.3014 32.5L16.3014 32.5C16.3014 28.7298 16.3948 25.2763 16.4107 22.177C16.4263 19.1383 16.3664 16.4916 16.0368 14.5801C15.8731 13.6307 15.6281 12.7656 15.2281 12.1075C14.8071 11.4149 14.156 10.8729 13.2395 10.8293C12.4119 10.7898 11.5861 11.1748 10.7963 11.739C9.98505 12.3185 9.07677 13.185 8.05398 14.3356L9.54881 15.6644Z" fill="#D1F831"/>
</svg>
