<svg width="18" height="17" viewBox="0 0 18 17" fill="none" xmlns="http://www.w3.org/2000/svg">
<path d="M17.0767 6.02755C16.7251 5.58102 16.2905 5.22296 15.8024 4.97762C15.3142 4.73227 14.784 4.60536 14.2475 4.60549H11.2562L11.5082 2.91901C11.5973 2.32511 11.4898 1.71569 11.2051 1.2019C10.9205 0.688113 10.4777 0.304188 9.95762 0.120154C9.4375 -0.063881 8.87467 -0.0357619 8.37179 0.199382C7.86891 0.434526 7.45949 0.861026 7.21821 1.40109L5.78297 4.60549H3.74933C2.75531 4.6068 1.80235 5.0425 1.09947 5.81703C0.396591 6.59155 0.00119068 7.64165 0 8.73699L0 12.8685C0.00119068 13.9638 0.396591 15.0139 1.09947 15.7885C1.80235 16.563 2.75531 16.9987 3.74933 17H13.7226C14.625 16.9959 15.4961 16.635 16.1775 15.983C16.8588 15.3309 17.3051 14.431 17.4351 13.4469L17.9638 9.3154C18.0382 8.72933 17.9976 8.13248 17.8445 7.56524C17.6915 6.998 17.4296 6.4736 17.0767 6.02755ZM1.49973 12.8685V8.73699C1.49973 8.07955 1.73674 7.44903 2.15862 6.98414C2.58051 6.51926 3.1527 6.25809 3.74933 6.25809H5.24906V15.3474H3.74933C3.1527 15.3474 2.58051 15.0862 2.15862 14.6213C1.73674 14.1565 1.49973 13.5259 1.49973 12.8685ZM16.4753 9.08321L15.9459 13.2147C15.8685 13.8047 15.6015 14.3444 15.1935 14.7358C14.7855 15.1272 14.2635 15.3442 13.7226 15.3474H6.7488V6.03829C6.81946 5.97045 6.87796 5.88861 6.92127 5.79701L8.56272 2.13237C8.62428 2.01002 8.7113 1.90551 8.81665 1.82743C8.92199 1.74935 9.04264 1.69994 9.16869 1.68324C9.29474 1.66654 9.42258 1.68304 9.54172 1.73139C9.66085 1.77973 9.76787 1.85853 9.85399 1.96132C9.92767 2.05573 9.98152 2.16688 10.0117 2.28686C10.0419 2.40684 10.0477 2.53268 10.0287 2.65542L9.63278 5.29958C9.6154 5.41772 9.62152 5.53862 9.65072 5.6539C9.67992 5.76918 9.73149 5.8761 9.80188 5.96725C9.87226 6.05841 9.95978 6.13163 10.0584 6.18184C10.157 6.23206 10.2643 6.25807 10.3729 6.25809H14.2475C14.5695 6.25804 14.8877 6.33416 15.1807 6.48131C15.4737 6.62846 15.7346 6.8432 15.9458 7.11102C16.157 7.37885 16.3136 7.69352 16.4049 8.03375C16.4963 8.37399 16.5203 8.73187 16.4753 9.08321Z" fill="white"/>
</svg>
