<svg width="137" height="41" viewBox="0 0 137 41" fill="none" xmlns="http://www.w3.org/2000/svg">
<path d="M6.64541 6.89512C11.5969 0.343173 21.3853 -1.29679 29.6642 0.951737C12.1976 1.24416 3.22323 20.9711 12.9524 27.1832C12.9524 27.1832 3.91873 26.2822 3.01379 19.0348C2.11279 11.7834 6.64541 6.89512 6.64541 6.89512Z" fill="url(#paint0_linear_7_255)"/>
<path opacity="0.3" d="M6.64541 6.89511C6.64541 6.89511 2.11279 11.7834 3.01379 19.0308C3.91873 26.2783 12.9524 27.1793 12.9524 27.1793C10.115 25.3654 8.87023 22.4056 8.96112 19.1099C6.04475 17.0392 4.24277 10.2225 6.64541 6.89511Z" fill="url(#paint1_linear_7_255)"/>
<path d="M37.5281 7.61434C30.2451 1.17304 17.315 11.9849 14.7346 17.5569C21.1285 7.60248 36.2754 12.4908 36.7772 19.0308C40.2745 14.4231 37.5281 7.61434 37.5281 7.61434Z" fill="url(#paint2_linear_7_255)"/>
<path opacity="0.3" d="M37.5281 7.61433C34.6907 5.10499 30.9998 5.21959 27.3959 6.61454C33.6001 4.99039 36.2517 10.9733 34.1138 14.7156C35.651 15.9248 36.6547 17.4264 36.7812 19.0308C40.2745 14.4231 37.5281 7.61433 37.5281 7.61433Z" fill="url(#paint3_linear_7_255)"/>
<path d="M7.14333 34.3872C10.8658 38.1651 16.0347 40.5084 21.7568 40.5084C33.0863 40.5084 42.2701 31.3246 42.2701 19.9951C42.2701 19.098 42.2069 18.2168 42.0963 17.3474C27.0955 30.9058 11.6878 33.8063 7.14333 34.3872Z" fill="url(#paint4_linear_7_255)"/>
<path opacity="0.5" d="M42.2662 19.9911C42.2662 19.0941 42.2029 18.2128 42.0923 17.3435C27.0955 30.9057 11.6878 33.8063 7.14333 34.3872C8.10754 35.3672 9.17056 36.2485 10.3126 37.0191C16.7618 36.5844 32.7979 29.8941 42.1437 22.2278C42.2227 21.4928 42.2662 20.7459 42.2662 19.9911Z" fill="url(#paint5_linear_7_255)"/>
<path d="M52.2482 12.6725L42.693 12.9689L43.7244 15.498L43.8824 15.8695C39.1325 19.3075 33.6198 22.8442 29.1544 25.1086C15.7699 31.8897 3.17185 34.7389 1.02607 31.4629C0.29105 30.3407 0.915421 28.6809 2.65418 26.713C0.00257493 29.1512 -0.56252 31.3167 0.516298 33.0318C3.84759 38.331 16.6156 36.2564 29.5733 29.6886C34.7461 27.0647 40.7843 23.4765 45.4434 19.513L46.7079 22.4688L52.2482 12.6725Z" fill="url(#paint6_linear_7_255)"/>
<path d="M34.0861 5.84C35.5522 6.12847 37.4135 7.26657 37.1448 9.03694C37.0855 9.43211 37.0657 9.83123 36.9195 10.2066C32.8176 20.6826 17.2123 29.005 8.83466 23.8993C4.51544 21.2714 2.05352 12.6725 6.64541 6.89511C-0.092265 14.5417 0.540009 24.6581 4.1914 28.9259C8.70821 34.2015 25.7441 27.9933 41.7999 17.1775C41.7999 14.0517 39.4091 6.8793 34.0861 5.84Z" fill="url(#paint7_linear_7_255)"/>
<path d="M63.0696 12.4545V27H60.4347V12.4545H63.0696ZM68.3803 20.608V27H65.8093V16.0909H68.2667V17.9446H68.3945C68.6455 17.3338 69.0456 16.8485 69.5948 16.4886C70.1488 16.1288 70.833 15.9489 71.6474 15.9489C72.4002 15.9489 73.056 16.1098 73.6147 16.4318C74.1781 16.7538 74.6138 17.2202 74.9215 17.831C75.234 18.4418 75.3879 19.1828 75.3832 20.054V27H72.8121V20.4517C72.8121 19.7225 72.6228 19.152 72.244 18.7401C71.8699 18.3281 71.3514 18.1222 70.6886 18.1222C70.2388 18.1222 69.8387 18.2216 69.4883 18.4205C69.1426 18.6146 68.8704 18.8963 68.6715 19.2656C68.4774 19.6349 68.3803 20.0824 68.3803 20.608ZM86.619 18.9744L84.2752 19.2301C84.2089 18.9934 84.0929 18.7708 83.9272 18.5625C83.7662 18.3542 83.5484 18.1861 83.2738 18.0582C82.9992 17.9304 82.663 17.8665 82.2653 17.8665C81.7302 17.8665 81.2804 17.9825 80.9158 18.2145C80.556 18.4465 80.3784 18.7472 80.3832 19.1165C80.3784 19.4337 80.4944 19.6918 80.7312 19.8906C80.9727 20.0895 81.3704 20.2528 81.9244 20.3807L83.7852 20.7784C84.8174 21.0009 85.5844 21.3537 86.0863 21.8366C86.5929 22.3196 86.8486 22.9517 86.8533 23.733C86.8486 24.4195 86.6474 25.0256 86.2496 25.5511C85.8567 26.072 85.3098 26.4792 84.609 26.7727C83.9083 27.0663 83.1033 27.2131 82.1942 27.2131C80.859 27.2131 79.7842 26.9337 78.9698 26.375C78.1554 25.8116 77.6701 25.0279 77.5138 24.0241L80.021 23.7827C80.1346 24.2751 80.3761 24.6468 80.7454 24.8977C81.1147 25.1487 81.5953 25.2741 82.1871 25.2741C82.7979 25.2741 83.288 25.1487 83.6573 24.8977C84.0314 24.6468 84.2184 24.3366 84.2184 23.9673C84.2184 23.6548 84.0977 23.3968 83.8562 23.1932C83.6194 22.9896 83.2501 22.8333 82.7482 22.7244L80.8874 22.3338C79.841 22.116 79.0669 21.7491 78.565 21.233C78.0631 20.7121 77.8145 20.054 77.8192 19.2585C77.8145 18.5862 77.9968 18.0038 78.3661 17.5114C78.7402 17.0142 79.2586 16.6307 79.9215 16.3608C80.5891 16.0862 81.3585 15.9489 82.2298 15.9489C83.5082 15.9489 84.5143 16.2211 85.2482 16.7656C85.9869 17.3101 86.4438 18.0464 86.619 18.9744ZM93.7319 27.2131C92.6665 27.2131 91.7433 26.9787 90.962 26.5099C90.1808 26.0412 89.5747 25.3854 89.1438 24.5426C88.7177 23.6998 88.5046 22.715 88.5046 21.5881C88.5046 20.4612 88.7177 19.474 89.1438 18.6264C89.5747 17.7789 90.1808 17.1207 90.962 16.652C91.7433 16.1832 92.6665 15.9489 93.7319 15.9489C94.7972 15.9489 95.7205 16.1832 96.5018 16.652C97.283 17.1207 97.8867 17.7789 98.3129 18.6264C98.7437 19.474 98.9592 20.4612 98.9592 21.5881C98.9592 22.715 98.7437 23.6998 98.3129 24.5426C97.8867 25.3854 97.283 26.0412 96.5018 26.5099C95.7205 26.9787 94.7972 27.2131 93.7319 27.2131ZM93.7461 25.1534C94.3237 25.1534 94.8067 24.9948 95.195 24.6776C95.5832 24.3556 95.872 23.9247 96.0614 23.3849C96.2556 22.8452 96.3526 22.2438 96.3526 21.581C96.3526 20.9134 96.2556 20.3097 96.0614 19.7699C95.872 19.2254 95.5832 18.7921 95.195 18.4702C94.8067 18.1482 94.3237 17.9872 93.7461 17.9872C93.1542 17.9872 92.6618 18.1482 92.2688 18.4702C91.8806 18.7921 91.5894 19.2254 91.3952 19.7699C91.2058 20.3097 91.1112 20.9134 91.1112 21.581C91.1112 22.2438 91.2058 22.8452 91.3952 23.3849C91.5894 23.9247 91.8806 24.3556 92.2688 24.6776C92.6618 24.9948 93.1542 25.1534 93.7461 25.1534ZM104.281 27.2202C103.589 27.2202 102.967 27.0971 102.413 26.8509C101.863 26.5999 101.428 26.2306 101.106 25.7429C100.789 25.2552 100.63 24.6539 100.63 23.9389C100.63 23.3234 100.744 22.8144 100.971 22.4119C101.198 22.0095 101.508 21.6875 101.901 21.446C102.294 21.2045 102.737 21.0223 103.229 20.8991C103.727 20.7713 104.24 20.679 104.771 20.6222C105.41 20.5559 105.928 20.4967 106.326 20.4446C106.724 20.3878 107.013 20.3026 107.192 20.1889C107.377 20.0705 107.469 19.8883 107.469 19.642V19.5994C107.469 19.0644 107.311 18.6501 106.994 18.3565C106.676 18.063 106.219 17.9162 105.623 17.9162C104.993 17.9162 104.494 18.0535 104.124 18.3281C103.76 18.6027 103.513 18.9271 103.386 19.3011L100.985 18.9602C101.174 18.2973 101.487 17.7434 101.923 17.2983C102.358 16.8485 102.891 16.5123 103.521 16.2898C104.15 16.0625 104.846 15.9489 105.609 15.9489C106.134 15.9489 106.657 16.0104 107.178 16.1335C107.699 16.2566 108.175 16.4602 108.606 16.7443C109.037 17.0237 109.382 17.4048 109.643 17.8878C109.908 18.3707 110.04 18.9744 110.04 19.6989V27H107.569V25.5014H107.484C107.327 25.8045 107.107 26.0885 106.823 26.3537C106.544 26.6141 106.191 26.8248 105.765 26.9858C105.344 27.142 104.849 27.2202 104.281 27.2202ZM104.948 25.331C105.464 25.331 105.912 25.2292 106.29 25.0256C106.669 24.8172 106.96 24.5426 107.164 24.2017C107.372 23.8608 107.477 23.4891 107.477 23.0866V21.8011C107.396 21.8674 107.259 21.929 107.065 21.9858C106.875 22.0426 106.662 22.0923 106.425 22.1349C106.189 22.1776 105.954 22.2154 105.722 22.2486C105.49 22.2817 105.289 22.3101 105.119 22.3338C104.735 22.3859 104.392 22.4711 104.089 22.5895C103.786 22.7079 103.547 22.8736 103.371 23.0866C103.196 23.295 103.109 23.5649 103.109 23.8963C103.109 24.3698 103.281 24.7273 103.627 24.9688C103.973 25.2102 104.413 25.331 104.948 25.331ZM115.197 20.608V27H112.626V16.0909H115.083V17.9446H115.211C115.462 17.3338 115.862 16.8485 116.411 16.4886C116.965 16.1288 117.649 15.9489 118.464 15.9489C119.217 15.9489 119.872 16.1098 120.431 16.4318C120.995 16.7538 121.43 17.2202 121.738 17.831C122.05 18.4418 122.204 19.1828 122.2 20.054V27H119.629V20.4517C119.629 19.7225 119.439 19.152 119.06 18.7401C118.686 18.3281 118.168 18.1222 117.505 18.1222C117.055 18.1222 116.655 18.2216 116.305 18.4205C115.959 18.6146 115.687 18.8963 115.488 19.2656C115.294 19.6349 115.197 20.0824 115.197 20.608ZM128.862 27.1918C128.004 27.1918 127.237 26.9716 126.56 26.5312C125.883 26.0909 125.348 25.4517 124.955 24.6136C124.562 23.7756 124.366 22.7576 124.366 21.5597C124.366 20.3475 124.565 19.3248 124.962 18.4915C125.365 17.6534 125.907 17.0213 126.589 16.5952C127.271 16.1643 128.031 15.9489 128.869 15.9489C129.508 15.9489 130.033 16.0578 130.445 16.2756C130.857 16.4886 131.184 16.7467 131.425 17.0497C131.667 17.348 131.854 17.6297 131.987 17.8949H132.093V12.4545H134.671V27H132.143V25.2812H131.987C131.854 25.5464 131.662 25.8281 131.411 26.1264C131.16 26.42 130.829 26.6709 130.417 26.8793C130.005 27.0876 129.487 27.1918 128.862 27.1918ZM129.579 25.0824C130.123 25.0824 130.587 24.9356 130.971 24.642C131.354 24.3437 131.646 23.9295 131.844 23.3991C132.043 22.8688 132.143 22.2509 132.143 21.5455C132.143 20.84 132.043 20.2268 131.844 19.706C131.65 19.1851 131.362 18.7803 130.978 18.4915C130.599 18.2027 130.133 18.0582 129.579 18.0582C129.006 18.0582 128.528 18.2074 128.144 18.5057C127.761 18.804 127.472 19.2159 127.278 19.7415C127.084 20.267 126.987 20.8684 126.987 21.5455C126.987 22.2273 127.084 22.8357 127.278 23.3707C127.477 23.901 127.768 24.3201 128.151 24.6278C128.54 24.9309 129.015 25.0824 129.579 25.0824Z" fill="white"/>
<defs>
<linearGradient id="paint0_linear_7_255" x1="0.786224" y1="25.8241" x2="27.6685" y2="-3.91187" gradientUnits="userSpaceOnUse">
<stop stop-color="#E9F950"/>
<stop offset="0.0001" stop-color="#55F4C4"/>
<stop offset="1" stop-color="#BAE906"/>
</linearGradient>
<linearGradient id="paint1_linear_7_255" x1="6.43289" y1="20.6" x2="15.0436" y2="11.4902" gradientUnits="userSpaceOnUse">
<stop stop-color="#0F7AEF"/>
<stop offset="1" stop-color="#6CE3FF"/>
</linearGradient>
<linearGradient id="paint2_linear_7_255" x1="12.8579" y1="18.3607" x2="23.527" y2="-2.93781" gradientUnits="userSpaceOnUse">
<stop stop-color="#E9F950"/>
<stop offset="0.0001" stop-color="#55F4C4"/>
<stop offset="1" stop-color="#BAE906"/>
</linearGradient>
<linearGradient id="paint3_linear_7_255" x1="37.7793" y1="12.0878" x2="27.7366" y2="12.7917" gradientUnits="userSpaceOnUse">
<stop stop-color="#A51AF4"/>
<stop offset="0.7581" stop-color="#6900BC"/>
</linearGradient>
<linearGradient id="paint4_linear_7_255" x1="4.37576" y1="39.3504" x2="24.4765" y2="5.10681" gradientUnits="userSpaceOnUse">
<stop stop-color="#E9F950"/>
<stop offset="0.0001" stop-color="#55F4C4"/>
<stop offset="1" stop-color="#BAE906"/>
</linearGradient>
<linearGradient id="paint5_linear_7_255" x1="1.23879" y1="27.1821" x2="42.2672" y2="27.1821" gradientUnits="userSpaceOnUse">
<stop stop-color="#A51AF4"/>
<stop offset="0.7581" stop-color="#6900BC"/>
</linearGradient>
<linearGradient id="paint6_linear_7_255" x1="-4.11653" y1="34.8698" x2="11.8459" y2="-5.22432" gradientUnits="userSpaceOnUse">
<stop stop-color="#E9F950"/>
<stop offset="0.0001" stop-color="#55F4C4"/>
<stop offset="1" stop-color="#BAE906"/>
</linearGradient>
<linearGradient id="paint7_linear_7_255" x1="-1.68358" y1="29.5871" x2="19.3423" y2="-8.49689" gradientUnits="userSpaceOnUse">
<stop stop-color="#E9F950"/>
<stop offset="0.0001" stop-color="#55F4C4"/>
<stop offset="1" stop-color="#BAE906"/>
</linearGradient>
</defs>
</svg>
