<svg width="69" height="11" viewBox="0 0 69 11" fill="none" xmlns="http://www.w3.org/2000/svg">
<path d="M6.11727 0.386675C6.00652 0.150374 5.7725 0 5.51548 0C5.25847 0 5.02653 0.150374 4.91369 0.386675L3.57012 3.22874L0.569535 3.68416C0.31879 3.72283 0.109836 3.90327 0.0325226 4.15032C-0.0447905 4.39736 0.0178957 4.67018 0.197596 4.85278L2.3749 7.06757L1.86087 10.1975C1.81908 10.4553 1.92356 10.7174 2.13042 10.8699C2.33729 11.0224 2.61102 11.0417 2.83669 10.9193L5.51757 9.44777L8.19845 10.9193C8.42412 11.0417 8.69785 11.0245 8.90472 10.8699C9.11158 10.7152 9.21606 10.4553 9.17427 10.1975L8.65815 7.06757L10.8355 4.85278C11.0152 4.67018 11.0799 4.39736 11.0005 4.15032C10.9211 3.90327 10.7143 3.72283 10.4635 3.68416L7.46085 3.22874L6.11727 0.386675Z" fill="url(#paint0_linear_1061_251)"/>
<path d="M20.547 0.386675C20.4362 0.150374 20.2022 0 19.9452 0C19.6882 0 19.4562 0.150374 19.3434 0.386675L17.9998 3.22874L14.9992 3.68416C14.7485 3.72283 14.5395 3.90327 14.4622 4.15032C14.3849 4.39736 14.4476 4.67018 14.6273 4.85278L16.8046 7.06757L16.2906 10.1975C16.2488 10.4553 16.3532 10.7174 16.5601 10.8699C16.767 11.0224 17.0407 11.0417 17.2664 10.9193L19.9473 9.44777L22.6281 10.9193C22.8538 11.0417 23.1275 11.0245 23.3344 10.8699C23.5413 10.7152 23.6457 10.4553 23.604 10.1975L23.0878 7.06757L25.2651 4.85278C25.4448 4.67018 25.5096 4.39736 25.4302 4.15032C25.3508 3.90327 25.144 3.72283 24.8932 3.68416L21.8905 3.22874L20.547 0.386675Z" fill="url(#paint1_linear_1061_251)"/>
<path d="M34.9747 0.386675C34.8639 0.150374 34.6299 0 34.3729 0C34.1159 0 33.884 0.150374 33.7711 0.386675L32.4275 3.22874L29.427 3.68416C29.1762 3.72283 28.9673 3.90327 28.8899 4.15032C28.8126 4.39736 28.8753 4.67018 29.055 4.85278L31.2323 7.06757L30.7183 10.1975C30.6765 10.4553 30.781 10.7174 30.9878 10.8699C31.1947 11.0224 31.4684 11.0417 31.6941 10.9193L34.375 9.44777L37.0559 10.9193C37.2815 11.0417 37.5553 11.0245 37.7621 10.8699C37.969 10.7152 38.0735 10.4553 38.0317 10.1975L37.5156 7.06757L39.6929 4.85278C39.8726 4.67018 39.9374 4.39736 39.858 4.15032C39.7785 3.90327 39.5717 3.72283 39.3209 3.68416L36.3183 3.22874L34.9747 0.386675Z" fill="url(#paint2_linear_1061_251)"/>
<path d="M49.4044 0.386675C49.2936 0.150374 49.0596 0 48.8026 0C48.5456 0 48.3136 0.150374 48.2008 0.386675L46.8572 3.22874L43.8566 3.68416C43.6059 3.72283 43.3969 3.90327 43.3196 4.15032C43.2423 4.39736 43.305 4.67018 43.4847 4.85278L45.662 7.06757L45.148 10.1975C45.1062 10.4553 45.2107 10.7174 45.4175 10.8699C45.6244 11.0224 45.8981 11.0417 46.1238 10.9193L48.8047 9.44777L51.4856 10.9193C51.7112 11.0417 51.985 11.0245 52.1918 10.8699C52.3987 10.7152 52.5032 10.4553 52.4614 10.1975L51.9453 7.06757L54.1226 4.85278C54.3023 4.67018 54.367 4.39736 54.2876 4.15032C54.2082 3.90327 54.0014 3.72283 53.7506 3.68416L50.748 3.22874L49.4044 0.386675Z" fill="url(#paint3_linear_1061_251)"/>
<path d="M63.8341 0.386675C63.7233 0.150374 63.4893 0 63.2323 0C62.9753 0 62.7433 0.150374 62.6305 0.386675L61.2869 3.22874L58.2863 3.68416C58.0356 3.72283 57.8266 3.90327 57.7493 4.15032C57.672 4.39736 57.7347 4.67018 57.9144 4.85278L60.0917 7.06757L59.5777 10.1975C59.5359 10.4553 59.6404 10.7174 59.8472 10.8699C60.0541 11.0224 60.3278 11.0417 60.5535 10.9193L63.2344 9.44777L65.9153 10.9193C66.1409 11.0417 66.4147 11.0245 66.6215 10.8699C66.8284 10.7152 66.9329 10.4553 66.8911 10.1975L66.375 7.06757L68.5523 4.85278C68.732 4.67018 68.7967 4.39736 68.7173 4.15032C68.6379 3.90327 68.4311 3.72283 68.1803 3.68416L65.1776 3.22874L63.8341 0.386675Z" fill="url(#paint4_linear_1061_251)"/>
<defs>
<linearGradient id="paint0_linear_1061_251" x1="0" y1="5.5" x2="11.034" y2="5.5" gradientUnits="userSpaceOnUse">
<stop stop-color="#F8776A"/>
<stop offset="0.256171" stop-color="#F9AB36"/>
<stop offset="0.492524" stop-color="#B9D23C"/>
<stop offset="0.71038" stop-color="#68DB6D"/>
<stop offset="0.979618" stop-color="#38BEF4"/>
</linearGradient>
<linearGradient id="paint1_linear_1061_251" x1="14.4297" y1="5.5" x2="25.4637" y2="5.5" gradientUnits="userSpaceOnUse">
<stop stop-color="#F8776A"/>
<stop offset="0.256171" stop-color="#F9AB36"/>
<stop offset="0.492524" stop-color="#B9D23C"/>
<stop offset="0.71038" stop-color="#68DB6D"/>
<stop offset="0.979618" stop-color="#38BEF4"/>
</linearGradient>
<linearGradient id="paint2_linear_1061_251" x1="28.8574" y1="5.5" x2="39.8914" y2="5.5" gradientUnits="userSpaceOnUse">
<stop stop-color="#F8776A"/>
<stop offset="0.256171" stop-color="#F9AB36"/>
<stop offset="0.492524" stop-color="#B9D23C"/>
<stop offset="0.71038" stop-color="#68DB6D"/>
<stop offset="0.979618" stop-color="#38BEF4"/>
</linearGradient>
<linearGradient id="paint3_linear_1061_251" x1="43.2871" y1="5.5" x2="54.3211" y2="5.5" gradientUnits="userSpaceOnUse">
<stop stop-color="#F8776A"/>
<stop offset="0.256171" stop-color="#F9AB36"/>
<stop offset="0.492524" stop-color="#B9D23C"/>
<stop offset="0.71038" stop-color="#68DB6D"/>
<stop offset="0.979618" stop-color="#38BEF4"/>
</linearGradient>
<linearGradient id="paint4_linear_1061_251" x1="57.7168" y1="5.5" x2="68.7508" y2="5.5" gradientUnits="userSpaceOnUse">
<stop stop-color="#F8776A"/>
<stop offset="0.256171" stop-color="#F9AB36"/>
<stop offset="0.492524" stop-color="#B9D23C"/>
<stop offset="0.71038" stop-color="#68DB6D"/>
<stop offset="0.979618" stop-color="#38BEF4"/>
</linearGradient>
</defs>
</svg>
